HIERARCHY
ROOT laydown
{
	OFFSET 0.000000 0.000000 0.000000
	CHANNELS 6 Xposition Yposition Zposition Xrotation Yrotation Zrotation
	JOINT Spine_01
	{
		OFFSET 0.000000 138.184219 -44.816219
		CHANNELS 3 Xrotation Yrotation Zrotation
		JOINT Spine_02
		{
			OFFSET -0.000004 -4.180267 28.050579
			CHANNELS 3 Xrotation Yrotation Zrotation
			JOINT Spine_03
			{
				OFFSET -0.000004 -2.923813 35.501564
				CHANNELS 3 Xrotation Yrotation Zrotation
				JOINT Spine_04
				{
					OFFSET -0.000006 1.220093 39.223053
					CHANNELS 3 Xrotation Yrotation Zrotation
					JOINT Neck_Base
					{
						OFFSET -0.000056 3.589035 29.437286
						CHANNELS 3 Xrotation Yrotation Zrotation
						JOINT Neck_01
						{
							OFFSET -0.041267 17.877167 9.460503
							CHANNELS 3 Xrotation Yrotation Zrotation
							JOINT Neck_02
							{
								OFFSET -0.087717 15.300079 15.305389
								CHANNELS 3 Xrotation Yrotation Zrotation
								JOINT Head
								{
									OFFSET 0.128577 15.540497 15.523819
									CHANNELS 3 Xrotation Yrotation Zrotation
									JOINT L_Ear
									{
										OFFSET 8.543181 16.284744 9.196167
										CHANNELS 3 Xrotation Yrotation Zrotation
										End Site
										{
											OFFSET 6.240143 6.340454 -14.343666
										}
									}
									JOINT R_Ear
									{
										OFFSET -7.275110 17.144165 8.712173
										CHANNELS 3 Xrotation Yrotation Zrotation
										End Site
										{
											OFFSET 4.631680 -6.931000 14.676193
										}
									}
									JOINT Jaw
									{
										OFFSET -0.485261 -4.110306 8.566055
										CHANNELS 3 Xrotation Yrotation Zrotation
										End Site
										{
											OFFSET 0.974797 16.705658 -2.202789
										}
									}
								}
							}
						}
					}
					JOINT R_Scapula
					{
						OFFSET -6.756385 17.541763 7.673988
						CHANNELS 3 Xrotation Yrotation Zrotation
						JOINT R_Shoulder
						{
							OFFSET -4.012974 -35.522552 22.005066
							CHANNELS 3 Xrotation Yrotation Zrotation
							JOINT R_Front_UpperLeg
							{
								OFFSET -3.178897 -27.349785 -18.723984
								CHANNELS 3 Xrotation Yrotation Zrotation
								JOINT R_Front_LowerLeg
								{
									OFFSET 1.576682 -39.718472 2.864098
									CHANNELS 3 Xrotation Yrotation Zrotation
									JOINT R_Front_Ankle
									{
										OFFSET 1.212199 -30.536831 2.201958
										CHANNELS 3 Xrotation Yrotation Zrotation
										JOINT R_Front_Hoof
										{
											OFFSET -0.000008 -9.177129 4.105598
											CHANNELS 3 Xrotation Yrotation Zrotation
											End Site
											{
												OFFSET 0.000017 0.000012 -10.053642
											}
										}
									}
								}
							}
						}
					}
					JOINT L_Scapula
					{
						OFFSET 6.756220 17.541611 7.674042
						CHANNELS 3 Xrotation Yrotation Zrotation
						JOINT L_Shoulder
						{
							OFFSET 2.967469 -35.658783 21.949951
							CHANNELS 3 Xrotation Yrotation Zrotation
							JOINT L_Front_UpperLeg
							{
								OFFSET 1.995463 -26.938629 -19.468475
								CHANNELS 3 Xrotation Yrotation Zrotation
								JOINT L_Front_LowerLeg
								{
									OFFSET -0.864232 -39.609890 -4.305237
									CHANNELS 3 Xrotation Yrotation Zrotation
									JOINT L_Front_Ankle
									{
										OFFSET -0.664377 -30.452950 -3.313950
										CHANNELS 3 Xrotation Yrotation Zrotation
										JOINT L_Front_Hoof
										{
											OFFSET 0.004585 -9.221639 4.004440
											CHANNELS 3 Xrotation Yrotation Zrotation
											End Site
											{
												OFFSET 0.011362 -0.110423 10.052956
											}
										}
									}
								}
							}
						}
					}
				}
			}
		}
		JOINT L_Hip
		{
			OFFSET 14.887411 -7.729401 -12.131313
			CHANNELS 3 Xrotation Yrotation Zrotation
			JOINT L_Back_UpperLeg
			{
				OFFSET 0.000002 -34.478577 8.440952
				CHANNELS 3 Xrotation Yrotation Zrotation
				JOINT L_Back_LowerLeg
				{
					OFFSET -3.196042 -42.364540 -14.576752
					CHANNELS 3 Xrotation Yrotation Zrotation
					JOINT L_Back_Ankle
					{
						OFFSET 1.655677 -33.756046 12.931885
						CHANNELS 3 Xrotation Yrotation Zrotation
						JOINT L_Back_Hoof
						{
							OFFSET 0.582796 -11.035068 3.767300
							CHANNELS 3 Xrotation Yrotation Zrotation
							End Site
							{
								OFFSET 1.784864 0.000003 11.537727
							}
						}
					}
				}
			}
		}
		JOINT R_Hip
		{
			OFFSET -14.887404 -7.729279 -12.131306
			CHANNELS 3 Xrotation Yrotation Zrotation
			JOINT R_Back_UpperLeg
			{
				OFFSET -0.000001 -35.225853 4.378204
				CHANNELS 3 Xrotation Yrotation Zrotation
				JOINT R_Back_LowerLeg
				{
					OFFSET 3.960886 -39.350452 -21.290848
					CHANNELS 3 Xrotation Yrotation Zrotation
					JOINT R_Back_Ankle
					{
						OFFSET -0.902672 -36.023087 3.312683
						CHANNELS 3 Xrotation Yrotation Zrotation
						JOINT R_Back_Hoof
						{
							OFFSET -0.767580 -11.035016 3.734024
							CHANNELS 3 Xrotation Yrotation Zrotation
							End Site
							{
								OFFSET 2.350776 -0.000010 -11.435806
							}
						}
					}
				}
			}
		}
		JOINT Tail_01
		{
			OFFSET 0.000002 9.427826 -23.815632
			CHANNELS 3 Xrotation Yrotation Zrotation
			JOINT Tail_02
			{
				OFFSET -0.010280 -10.096970 -19.648132
				CHANNELS 3 Xrotation Yrotation Zrotation
				JOINT Tail_03
				{
					OFFSET -0.004988 -22.410088 -6.558182
					CHANNELS 3 Xrotation Yrotation Zrotation
					JOINT Tail_04
					{
						OFFSET -0.107969 -23.216454 -0.630173
						CHANNELS 3 Xrotation Yrotation Zrotation
						JOINT Tail_05
						{
							OFFSET -0.132747 -23.338974 1.137360
							CHANNELS 3 Xrotation Yrotation Zrotation
							End Site
							{
								OFFSET 0.310915 -1.139107 -23.337189
							}
						}
					}
				}
			}
		}
	}
}
MOTION
Frames: 4
Frame Time: 0.033333
0.000000 0.000000 0.000000 0.000006 0.000000 -0.000000 -0.000026 -0.000000 -0.000000 0.000029 0.000000 -0.000000 -0.000026 0.000000 0.000000 -0.000003 -0.000000 -0.000000 -0.000016 -0.000000 -0.000000 -0.000000 -0.000000 -0.000000 0.000023 -0.000001 -0.000000 -0.000400 -0.000777 -0.000392 0.000371 0.000786 0.000394 0.000365 0.000771 0.000402 0.000417 0.000779 0.000010 -0.000005 -0.000000 0.000005 -0.000009 -0.000113 0.000102 0.000003 0.000000 -0.000003 0.000016 0.000000 -0.000002 -0.000079 -0.000000 0.000004 0.000053 -0.000055 0.000021 0.000003 0.000001 0.000000 -0.000003 -0.000001 0.000001 -0.000026 -0.000003 0.000002 -0.000002 -0.000013 -0.000005 0.000033 -0.000003 -0.000003 -0.000027 0.000104 -0.000038 0.000002 -0.000005 -0.000003 -0.000002 0.000003 0.000001 0.000016 0.000001 0.000009 0.000001 -0.000003 -0.000002 -0.000015 0.000087 -0.000028 0.000001 0.000014 -0.000087 0.000020 -0.000007 -0.000002 -0.000001 -0.000012 0.000010 -0.000025 0.000004 0.000009 -0.000004 -0.000063 0.000024 0.000056 0.000003 -0.000003 -0.000032 -0.000000 -0.000000 -0.000035 0.000000 -0.000000 0.000029 -0.000000 0.000000 -0.000023 -0.000000 0.000000 
0.000000 0.000000 0.000000 0.000006 0.000000 -0.000000 -0.000006 -0.000000 -0.066089 0.022762 -0.032512 0.026012 0.008325 0.005355 0.038784 -0.009018 0.027270 0.001661 0.130380 0.015980 -0.003884 0.214356 -0.012839 0.002144 0.181573 -0.014223 0.006429 -0.060042 -0.016230 0.009516 0.000369 0.000786 0.000359 0.000370 0.000770 0.000359 0.000418 0.000779 0.000010 -0.009452 0.001175 -0.000238 0.025695 -0.003056 0.000039 -0.048126 0.000639 -0.000848 -0.000087 0.000095 -0.000006 0.009760 0.001056 0.000780 0.000051 -0.000055 0.000021 0.000032 -0.000557 0.001239 -0.000020 0.000107 -0.000004 -4.917273 0.121020 -0.071677 10.700324 -0.234494 0.181117 -4.723394 0.136127 -0.078950 -0.000028 0.000104 -0.000038 -0.011483 -0.000005 -0.000003 -0.013930 0.006541 0.066480 0.084423 -0.001407 -0.014441 -0.059015 -0.005177 0.014039 -0.000014 0.000087 -0.000028 -0.043658 0.000014 -0.000087 -0.015682 0.045187 0.054365 0.177313 -0.001164 0.035226 -0.251450 -0.043939 -0.050976 0.299301 0.000099 0.061549 -0.013841 -0.026962 0.008417 -0.014134 -0.003454 0.011810 -0.014094 -0.000271 0.012351 0.092276 -0.005947 0.014974 0.091968 -0.008671 0.015074 
0.000000 0.000000 0.000000 0.000006 0.000000 -0.000000 0.000015 -0.000000 -0.247526 0.084290 -0.121678 0.097537 0.033267 0.020135 0.145219 -0.030967 0.102069 0.006907 0.509442 0.060158 -0.015039 0.827487 -0.047961 0.008016 0.694218 -0.054101 0.025087 -0.242540 -0.059571 0.038264 0.000380 0.000785 0.000178 0.000368 0.000770 0.000178 0.000418 0.000779 0.000010 -0.036508 0.003958 0.000551 0.101865 -0.011779 -0.000142 -0.190682 0.002373 -0.007136 -0.000086 0.000092 -0.000006 0.039115 0.005264 0.004704 0.000055 -0.000055 0.000021 0.000064 -0.001938 0.004424 -0.000782 -0.000065 0.000006 -10.219329 0.262690 -0.142851 21.140957 -0.426979 0.396814 -6.956101 0.253606 -0.146029 -0.000030 0.000105 -0.000038 -0.045504 -0.000005 -0.000003 -0.044891 0.024307 0.248567 0.310562 -0.005279 -0.053141 -0.220260 -0.019623 0.052155 -0.000015 0.000087 -0.000028 -0.169927 0.000014 -0.000087 -0.039926 0.175010 0.207375 0.634975 -0.003629 0.126134 -0.918934 -0.170044 -0.188068 1.141514 0.002275 0.234663 -0.053591 -0.072908 0.027206 -0.054516 -0.013329 0.045596 -0.054348 -0.001042 0.047691 0.351871 -0.022671 0.057110 0.350851 -0.033059 0.057499 
0.000000 0.000000 0.000000 0.000006 0.000000 -0.000000 -0.000054 0.000001 -0.519231 0.174956 -0.254755 0.204886 0.074586 0.042515 0.304413 -0.058222 0.214302 0.014822 1.123120 0.128106 -0.033201 1.794188 -0.101404 0.019878 1.487615 -0.115286 0.056513 -0.554560 -0.125964 0.083303 0.000386 0.000786 0.000047 0.000376 0.000769 0.000049 0.000419 0.000779 0.000010 -0.074267 0.005839 0.006228 0.225980 -0.025994 -0.000412 -0.432935 0.005252 -0.025246 -0.000086 0.000089 -0.000006 0.091844 0.014765 0.014667 0.000055 -0.000055 0.000021 -0.000078 -0.004203 0.009625 -0.001968 -0.000158 0.000015 -15.364323 0.408701 -0.203099 30.123071 -0.558936 0.607717 -6.451593 0.332921 -0.206092 -0.000029 0.000105 -0.000038 -0.101473 -0.000005 -0.000003 -0.077326 0.050385 0.520442 0.639316 -0.011183 -0.109377 -0.460883 -0.041700 0.108397 -0.000012 0.000088 -0.000028 -0.371582 0.000014 -0.000087 -0.041986 0.380321 0.443616 1.267051 -0.005838 0.251713 -1.874688 -0.368928 -0.388801 2.443087 0.010644 0.502089 -0.116343 -0.121751 0.052843 -0.118237 -0.028920 0.098923 -0.117883 -0.002262 0.103471 0.753113 -0.048485 0.122260 0.751013 -0.070721 0.123073 
